<mxfile host="app.diagrams.net" modified="2024-07-25T19:54:20.794Z" agent="Mozilla/5.0 (Windows NT 10.0; Win64; x64) AppleWebKit/537.36 (KHTML, like Gecko) Chrome/126.0.0.0 Safari/537.36" etag="OV4CflpVC4_wgzNcA4I4" version="24.2.8" type="device">
  <diagram name="Page-1" id="1aRl93-eTezA5UAsVcEZ">
    <mxGraphModel dx="882" dy="509" grid="1" gridSize="10" guides="1" tooltips="1" connect="1" arrows="1" fold="1" page="1" pageScale="1" pageWidth="1654" pageHeight="1169" math="0" shadow="0">
      <root>
        <mxCell id="0" />
        <mxCell id="1" parent="0" />
        <mxCell id="Fozqe144JV3l185xmL-n-42" value="" style="rounded=0;whiteSpace=wrap;html=1;" vertex="1" parent="1">
          <mxGeometry x="70" y="30" width="860" height="440" as="geometry" />
        </mxCell>
        <mxCell id="Fozqe144JV3l185xmL-n-8" value="" style="group" vertex="1" connectable="0" parent="1">
          <mxGeometry x="100" y="80" width="210" height="170" as="geometry" />
        </mxCell>
        <mxCell id="Fozqe144JV3l185xmL-n-1" value="" style="rounded=1;whiteSpace=wrap;html=1;" vertex="1" parent="Fozqe144JV3l185xmL-n-8">
          <mxGeometry width="210" height="170" as="geometry" />
        </mxCell>
        <mxCell id="Fozqe144JV3l185xmL-n-2" value="Hadoop Cluster" style="text;html=1;align=center;verticalAlign=middle;whiteSpace=wrap;rounded=0;" vertex="1" parent="Fozqe144JV3l185xmL-n-8">
          <mxGeometry x="52.5" y="10" width="105" height="30" as="geometry" />
        </mxCell>
        <mxCell id="Fozqe144JV3l185xmL-n-4" value="HDFS" style="swimlane;whiteSpace=wrap;html=1;" vertex="1" parent="Fozqe144JV3l185xmL-n-8">
          <mxGeometry x="45" y="60" width="120" height="60" as="geometry" />
        </mxCell>
        <mxCell id="Fozqe144JV3l185xmL-n-7" value="Test_file" style="text;html=1;align=center;verticalAlign=middle;whiteSpace=wrap;rounded=0;" vertex="1" parent="Fozqe144JV3l185xmL-n-4">
          <mxGeometry x="30" y="30" width="60" height="30" as="geometry" />
        </mxCell>
        <mxCell id="Fozqe144JV3l185xmL-n-11" value="" style="group" vertex="1" connectable="0" parent="1">
          <mxGeometry x="400" y="230" width="210" height="170" as="geometry" />
        </mxCell>
        <mxCell id="Fozqe144JV3l185xmL-n-12" value="" style="rounded=1;whiteSpace=wrap;html=1;" vertex="1" parent="Fozqe144JV3l185xmL-n-11">
          <mxGeometry width="210" height="170" as="geometry" />
        </mxCell>
        <mxCell id="Fozqe144JV3l185xmL-n-13" value="Python Application" style="text;html=1;align=center;verticalAlign=middle;whiteSpace=wrap;rounded=0;" vertex="1" parent="Fozqe144JV3l185xmL-n-11">
          <mxGeometry x="52.5" y="10" width="105" height="30" as="geometry" />
        </mxCell>
        <mxCell id="Fozqe144JV3l185xmL-n-16" value="" style="swimlane;startSize=0;" vertex="1" parent="Fozqe144JV3l185xmL-n-11">
          <mxGeometry x="22.5" y="50" width="57.5" height="80" as="geometry" />
        </mxCell>
        <mxCell id="Fozqe144JV3l185xmL-n-23" value="HDFS Client" style="text;html=1;align=center;verticalAlign=middle;whiteSpace=wrap;rounded=0;" vertex="1" parent="Fozqe144JV3l185xmL-n-16">
          <mxGeometry x="-2.5" y="25" width="60" height="30" as="geometry" />
        </mxCell>
        <mxCell id="Fozqe144JV3l185xmL-n-21" value="" style="swimlane;startSize=0;" vertex="1" parent="Fozqe144JV3l185xmL-n-11">
          <mxGeometry x="120" y="50" width="57.5" height="80" as="geometry" />
        </mxCell>
        <mxCell id="Fozqe144JV3l185xmL-n-24" value="" style="swimlane;startSize=0;" vertex="1" parent="Fozqe144JV3l185xmL-n-21">
          <mxGeometry width="57.5" height="80" as="geometry" />
        </mxCell>
        <mxCell id="Fozqe144JV3l185xmL-n-25" value="S3 Client" style="text;html=1;align=center;verticalAlign=middle;whiteSpace=wrap;rounded=0;" vertex="1" parent="Fozqe144JV3l185xmL-n-24">
          <mxGeometry x="-2.5" y="25" width="60" height="30" as="geometry" />
        </mxCell>
        <mxCell id="Fozqe144JV3l185xmL-n-29" style="edgeStyle=orthogonalEdgeStyle;rounded=0;orthogonalLoop=1;jettySize=auto;html=1;exitX=1;exitY=0.5;exitDx=0;exitDy=0;entryX=0;entryY=0.5;entryDx=0;entryDy=0;" edge="1" parent="1" source="Fozqe144JV3l185xmL-n-1" target="Fozqe144JV3l185xmL-n-23">
          <mxGeometry relative="1" as="geometry" />
        </mxCell>
        <mxCell id="Fozqe144JV3l185xmL-n-30" value="Read file" style="text;html=1;align=center;verticalAlign=middle;whiteSpace=wrap;rounded=0;" vertex="1" parent="1">
          <mxGeometry x="330" y="130" width="60" height="30" as="geometry" />
        </mxCell>
        <mxCell id="Fozqe144JV3l185xmL-n-31" value="" style="group" vertex="1" connectable="0" parent="1">
          <mxGeometry x="690" y="80" width="210" height="170" as="geometry" />
        </mxCell>
        <mxCell id="Fozqe144JV3l185xmL-n-32" value="" style="rounded=1;whiteSpace=wrap;html=1;" vertex="1" parent="Fozqe144JV3l185xmL-n-31">
          <mxGeometry width="210" height="170" as="geometry" />
        </mxCell>
        <mxCell id="Fozqe144JV3l185xmL-n-33" value="AWS&amp;nbsp;" style="text;html=1;align=center;verticalAlign=middle;whiteSpace=wrap;rounded=0;" vertex="1" parent="Fozqe144JV3l185xmL-n-31">
          <mxGeometry x="52.5" y="10" width="105" height="30" as="geometry" />
        </mxCell>
        <mxCell id="Fozqe144JV3l185xmL-n-34" value="S3 bucket" style="swimlane;whiteSpace=wrap;html=1;" vertex="1" parent="Fozqe144JV3l185xmL-n-31">
          <mxGeometry x="45" y="60" width="120" height="60" as="geometry" />
        </mxCell>
        <mxCell id="Fozqe144JV3l185xmL-n-35" value="Test_file" style="text;html=1;align=center;verticalAlign=middle;whiteSpace=wrap;rounded=0;" vertex="1" parent="Fozqe144JV3l185xmL-n-34">
          <mxGeometry x="30" y="30" width="60" height="30" as="geometry" />
        </mxCell>
        <mxCell id="Fozqe144JV3l185xmL-n-36" style="edgeStyle=orthogonalEdgeStyle;rounded=0;orthogonalLoop=1;jettySize=auto;html=1;exitX=1;exitY=0.5;exitDx=0;exitDy=0;entryX=0;entryY=0.5;entryDx=0;entryDy=0;" edge="1" parent="1" source="Fozqe144JV3l185xmL-n-25" target="Fozqe144JV3l185xmL-n-32">
          <mxGeometry relative="1" as="geometry">
            <mxPoint x="670" y="150" as="targetPoint" />
          </mxGeometry>
        </mxCell>
        <mxCell id="Fozqe144JV3l185xmL-n-41" value="Uplaod File" style="text;html=1;align=center;verticalAlign=middle;whiteSpace=wrap;rounded=0;" vertex="1" parent="1">
          <mxGeometry x="610" y="120" width="70" height="30" as="geometry" />
        </mxCell>
        <mxCell id="Fozqe144JV3l185xmL-n-43" value="Data Transfer from HDFS to S3" style="text;html=1;align=center;verticalAlign=middle;whiteSpace=wrap;rounded=0;" vertex="1" parent="1">
          <mxGeometry x="407.5" y="430" width="195" height="30" as="geometry" />
        </mxCell>
      </root>
    </mxGraphModel>
  </diagram>
</mxfile>
